<svg version="1.2" xmlns="http://www.w3.org/2000/svg" viewBox="0 0 1539 236" width="1539" height="236">
	<title>vmware-logo-grey-svg</title>
	<style>
		.s0 { fill: #717074 } 
	</style>
	<g id="Layer">
		<path id="Layer" class="s0" d="m661.1 218.2l-67.1-188.1c-1.1-2.2-2.2-5.5-2.2-8.8 0-7.7 6.6-16.5 17.6-16.5 7.7 0 14.3 5.5 17.6 14.3l55 161.7 56.1-162.8c2.2-7.7 7.7-14.3 16.5-14.3h2.2c8.8 0 15.4 5.5 17.6 14.3l55 162.8 56.1-162.8c2.2-6.6 6.6-13.2 16.5-13.2 9.9 0 16.5 6.6 16.5 15.4 0 3.3-1.1 6.6-2.2 8.8l-68.2 188.1c-3.3 9.9-9.9 15.4-18.7 15.4h-1.1c-7.7 0-15.4-4.4-18.7-15.4l-55-159.5-55 159.5c-3.3 9.9-8.8 15.4-18.7 15.4h-1.1c-8.8 1.1-15.4-5.5-18.7-14.3z"/>
		<path id="Layer" class="s0" d="m1151.7 22.4c0-8.8 6.6-17.6 16.5-17.6 8.8 0 17.6 6.6 17.6 17.6v38.5c16.5-37.4 52.8-53.9 75.9-53.9 9.9 0 16.5 6.6 16.5 17.6 0 8.8-5.5 15.4-15.4 17.6-42.9 4.4-78.1 37.4-78.1 101.2v74.8c0 8.8-6.6 17.6-16.5 17.6-8.8 0-17.6-6.6-17.6-17.6v-195.8"/>
		<path id="Layer" fill-rule="evenodd" class="s0" d="m1384.9 234.7c-59.4 0-107.8-46.2-107.8-114.4v-1.1c0-63.8 44-114.4 104.5-114.4 64.9 0 101.2 52.8 101.2 112.2 0 8.8-6.6 15.4-15.4 15.4h-158.4c4.4 47.3 38.5 74.8 77 74.8 26.4 0 47.3-9.9 62.7-25.3 2.2-2.2 5.5-3.3 8.8-3.3 7.7 0 14.3 6.6 14.3 14.3 0 3.3-1.1 7.7-4.4 9.9-20.9 18.7-45.1 31.9-82.5 31.9zm64.9-127.6c-3.3-40.7-26.4-74.8-69.3-74.8-38.5 0-67.1 31.9-70.4 74.8z"/>
		<path id="Layer" fill-rule="evenodd" class="s0" d="m917.4 166.5c0-47.3 38.5-72.6 94.6-72.6 28.6 0 48.4 3.3 68.2 8.8v-7.7c0-40.7-24.2-59.4-66-59.4-22 0-35.2 2.2-51.7 9.9-2.2 1.1-4.4 1.1-5.5 1.1-7.7 0-15.4-6.6-15.4-14.3 0-7.7 3.3-11 8.8-14.3 22-8.8 38.5-13.2 67.1-13.2 30.8 0 55 7.7 71.5 24.2 15.4 15.4 23.1 37.4 23.1 64.9v122.1c0 8.8-6.6 16.5-16.5 16.5-8.8 0-16.5-6.6-16.5-15.4v-22c-15.4 20.9-41.8 38.5-80.3 38.5-39.6 1.1-81.4-22-81.4-67.1zm162.8-17.6v-22c-16.5-4.4-38.5-8.8-66-8.8-41.8 0-64.9 18.7-64.9 46.2v1.1c0 27.5 25.3 44 55 44 42.9 0 75.9-25.3 75.9-60.5z"/>
		<path id="Layer" class="s0" d="m114.4 154.4l45.1-105.6c15.4-34.1 40.7-48.4 71.5-48.4 18.7 0 44 11 58.3 29.7 0 0 31.9-29.7 67.1-29.7 34.1 0 52.8 11 68.2 29.7 0 0 26.4-29.7 70.4-29.7 44 0 79.2 30.8 79.2 75.9v121c0 20.9-11 37.4-33 37.4-20.9 0-31.9-17.6-31.9-37.4v-106.7c0-19.8-13.2-34.1-33-34.1-18.7 0-34.1 13.2-34.1 34.1v106.7c0 20.9-11 37.4-33 37.4-20.9 0-31.9-17.6-31.9-37.4v-106.7c0-19.8-13.2-34.1-33-34.1-18.7 0-34.1 13.2-34.1 34.1v105.6c0 20.9-11 37.4-33 37.4-20.9 0-31.9-17.6-31.9-37.4v-129.8c0-5.5-3.3-9.9-8.8-9.9-6.6 0-7.7 4.4-8.8 5.5-1.1 1.1-62.7 135.3-62.7 135.3-12.1 23.1-22 37.4-45.1 37.4-22 0-34.1-13.2-45.1-37.4l-70.4-152.9c-8.8-15.4-2.2-35.2 14.3-41.8 16.5-6.6 35.2 0 41.8 16.5z"/>
		<path id="Layer" fill-rule="evenodd" class="s0" d="m1511.4 59.8c-15.2 0-27.5-12.3-27.5-27.5 0-15.2 12.3-27.5 27.5-27.5 15.2 0 27.5 12.3 27.5 27.5 0 15.2-12.3 27.5-27.5 27.5zm22-27.5c0-12.2-9.8-22-22-22-12.2 0-22 9.8-22 22 0 12.2 9.8 22 22 22 12.2 0 22-9.8 22-22z"/>
	</g>
	<g id="Layer">
		<path id="Layer" fill-rule="evenodd" class="s0" d="m1522.4 33.4c-1.1 1.1-3.3 2.2-5.5 3.3l6.6 9.9h-5.5l-6.6-9.9h-4.4v9.9h-5.5v-28.6h12.1c2.2 0 3.3 0 5.5 1.1 1.1 1.1 3.3 2.2 3.3 3.3 1.1 1.1 1.1 3.3 1.1 4.4 1.1 3.3 0 5.5-1.1 6.6zm-15.4-1.1h6.6c2.2 0 3.3 0 4.4-1.1 1.1-1.1 1.1-2.2 1.1-3.3 0-1.1-1.1-2.2-1.1-3.3-1.1-1.1-2.2-1.1-4.4-1.1h-6.6z"/>
	</g>
</svg>