<svg version="1.2" xmlns="http://www.w3.org/2000/svg" viewBox="0 0 1578 1240" width="1578" height="1240">
	<title>Wipro_Primary_Logo_Color_RGB-svg</title>
	<style>
		.s0 { fill: #2a4c87 } 
		.s1 { fill: #2e4e88 } 
		.s2 { fill: #1f3d70 } 
		.s3 { fill: #194c88 } 
		.s4 { fill: #3468a3 } 
		.s5 { fill: #4c8dcb } 
		.s6 { fill: #3498b3 } 
		.s7 { fill: #0aa496 } 
		.s8 { fill: #00aa75 } 
		.s9 { fill: #4fba6a } 
		.s10 { fill: #7ec45f } 
		.s11 { fill: #4c609b } 
		.s12 { fill: #54669f } 
		.s13 { fill: #746fa7 } 
		.s14 { fill: #99558e } 
		.s15 { fill: #af3379 } 
		.s16 { fill: #be266a } 
		.s17 { fill: #d4525c } 
		.s18 { fill: #e0654f } 
		.s19 { fill: #f57f2a } 
		.s20 { fill: #f89828 } 
		.s21 { fill: #fec127 } 
		.s22 { fill: #fed627 } 
		.s23 { fill: #351a55 } 
	</style>
	<path id="path999" class="s0" d="m1472.2 409.8c33.9-9.2 68.2 10.9 76.9 44.3 9.2 33.9-10.8 68.2-44.3 77-33.9 9.2-68.2-10.9-77-44.3-8.8-33.5 11.3-67.8 44.4-77z"/>
	<path id="path1001" class="s0" d="m1290.6 523.6c-6.2-22.6 7.6-46 30.1-52.3 22.6-6.3 46.1 7.5 52.3 30.1 6.3 22.6-7.5 46-30.1 52.3-23 5.8-46.4-7.6-52.3-30.1z"/>
	<path id="path1003" class="s0" d="m1178.9 553.3c-4.6-16.8 5.5-33.9 22.2-38.5 16.7-4.6 33.9 5.4 38.5 22.1 4.6 16.8-5.4 33.9-22.2 38.5-16.7 4.6-33.9-5.4-38.5-22.1z"/>
	<path id="path1005" class="s1" d="m1095.7 575.8c-2.5-10.4 3.8-21.3 14.2-24.2 10.5-2.5 21.8 3.7 24.3 14.2 2.5 10.5-3.8 21.3-14.2 24.3-10.9 2.5-21.8-3.8-24.3-14.3z"/>
	<path id="path1007" class="s2" d="m1402.3 281.9c27.2-15.9 61.9-6.3 77.8 20.9 15.9 27.1 6.3 61.9-20.9 77.7-27.2 15.9-61.9 6.3-77.8-20.9-15.9-27.1-6.3-61.9 20.9-77.7z"/>
	<path id="path1009" class="s2" d="m1270.1 377.6c19.3-10.9 43.5-4.6 54.4 14.7 10.9 19.2 4.6 43.4-14.6 54.3-19.3 10.9-43.5 4.6-54.4-14.6-10.9-19.3-4.2-43.5 14.6-54.4z"/>
	<path id="path1011" class="s2" d="m1204.9 461.3c7.9 13.8 3.3 30.9-10.5 38.8-13.8 8-30.9 3.4-38.9-10.4-7.9-13.8-3.3-31 10.5-38.9 13.8-7.5 31.3-2.9 38.9 10.5z"/>
	<path id="path1013" class="s2" d="m1111.2 515.6c5 8.8 1.6 20.1-7.1 25.1-8.8 5-20.1 1.7-25.1-7.1-5.1-8.8-1.7-20.1 7.1-25.1 8.8-5 20.1-1.7 25.1 7.1z"/>
	<path id="path1015" class="s3" d="m1302.8 248c-20.1-20.1-20.1-52.3 0-72.4 20-20 52.2-20 72.3 0 20.1 20.1 20.1 52.3 0 72.4-20.1 20.1-52.7 20.1-72.3 0z"/>
	<path id="path1017" class="s3" d="m1250.1 352.5c-14.3 14.7-37.7 14.7-52.3 0-14.7-14.2-14.7-37.6 0-52.2 14.2-14.7 37.6-14.7 52.3 0 14.6 14.2 14.6 37.6 0 52.2z"/>
	<path id="path1019" class="s3" d="m1152.6 398.1c10 9.6 10 25.9 0 36-10.1 10-26.4 10-36.4 0-10-10.1-10-26.4 0-36.4 10-10 26.3-10 36.4 0.4z"/>
	<path id="path1021" class="s3" d="m1053 473c6.7-6.7 17.6-6.7 24.3 0 6.7 6.7 6.7 17.5 0 24.2-6.7 6.7-17.6 6.7-24.3 0-6.7-6.7-6.7-17.5 0-24.2z"/>
	<path id="path1023" class="s4" d="m1194.8 161.8c-23.4-13.3-31.3-43-17.5-66 13.4-23 43.1-31 66.1-17.6 23 13.4 30.9 43.1 17.5 66.1-13.4 23-43.1 30.9-66.1 17.5 0 0-0.4 0 0 0z"/>
	<path id="path1025" class="s4" d="m1155.1 230.8c16.3 9.7 22.2 30.6 12.5 46.9-9.6 16.3-30.5 22.1-46.8 12.5-16.3-9.6-22.2-30.5-12.6-46.8 9.2-16.3 30.2-22.2 46.9-12.6z"/>
	<path id="path1027" class="s4" d="m1094 381.4c-6.3 10.9-20.1 14.6-30.9 8.3-10.9-6.2-14.7-20-8.4-30.9 6.3-10.9 20.1-14.6 31-8.4 10.8 6.3 14.6 20.1 8.3 31z"/>
	<path id="path1029" class="s4" d="m1038.8 462.9c-4.2 7.6-13.8 10.1-21.3 5.9-7.6-4.2-10.1-13.8-5.9-21.3 4.2-7.6 13.8-10.1 21.4-5.9 7.5 4.2 10 13.8 5.8 21.3z"/>
	<path id="path1031" class="s5" d="m1035.5 50.6c6.2-24.3 31.3-38.5 55.6-32.2 24.3 6.3 38.9 31.4 32.2 55.6-6.3 24.3-31.4 38.9-55.6 32.2-24.3-6.3-38.9-31.3-32.2-55.6z"/>
	<path id="path1033" class="s5" d="m1007 210.8c4.6-16.8 21.8-26.8 38.5-22.2 16.7 4.6 26.8 21.7 22.2 38.5-4.6 16.7-21.8 26.7-38.5 22.1-16.7-4.6-26.4-21.7-22.2-38.4z"/>
	<path id="path1035" class="s5" d="m984 336.2c2.9-11.3 14.7-18 25.9-15 11.3 2.9 18 14.6 15.1 25.9-2.9 11.3-14.6 18-25.9 15-11.3-3.3-18-15-15.1-25.9z"/>
	<path id="path1037" class="s5" d="m983.2 422.4c7.5 2.1 12.1 10 10 17.5-2.1 7.6-10 12.2-17.6 10.1-7.5-2.1-12.1-10.1-10-17.6 1.7-7.5 9.6-12.1 17.6-10z"/>
	<ellipse id="path1039" class="s6" cx="929.6" cy="42.7" rx="42.7" ry="42.7"/>
	<circle id="path1041" class="s6" cx="929.6" cy="204.9" r="28.4"/>
	<circle id="path1043" class="s6" cx="929.6" cy="331.6" r="20.1"/>
	<circle id="path1045" class="s6" cx="929.6" cy="429.9" r="13"/>
	<path id="path1047" class="s7" d="m741.4 73.2c-5.9-21.3 6.7-43.1 28-48.9 21.4-5.9 43.1 6.6 49 28 5.8 21.3-6.7 43-28.1 48.9-20.9 5.4-43-7.1-48.9-28z"/>
	<path id="path1049" class="s7" d="m815.4 194.5c13.8-3.8 27.6 4.1 31.4 17.9 3.8 13.8-4.2 27.6-18 31.4-13.8 3.8-27.6-4.2-31.4-18-3.7-13.4 4.6-27.6 18-31.3z"/>
	<path id="path1051" class="s7" d="m850.2 324.1c9.6-2.9 20 2.9 22.5 13 3 9.6-2.9 20-12.9 22.5-9.6 3-20.1-2.9-22.6-12.9-2.5-10.1 2.9-20.1 13-22.6z"/>
	<path id="path1053" class="s7" d="m877.3 425.7c5.9-1.7 12.2 1.7 13.8 8 1.7 5.8-1.6 12.1-7.9 13.8-5.9 1.6-12.1-1.7-13.8-8-1.7-6.3 2.1-12.1 7.9-13.8z"/>
	<path id="path1055" class="s8" d="m608.8 138.8c-10-17.5-3.8-40.5 13.8-50.6 17.6-10 40.6-3.7 50.6 13.8 10.1 17.6 3.8 40.6-13.8 50.6-17.6 10.1-40.1 4.2-50.6-13.8z"/>
	<path id="path1057" class="s8" d="m702.5 272.2c-6.3-10.8-2.5-24.6 8.4-30.9 10.8-6.3 24.6-2.5 30.9 8.4 6.3 10.8 2.5 24.6-8.4 30.9-10.8 6.3-25.1 2.5-30.9-8.4z"/>
	<path id="path1059" class="s8" d="m770.3 379.3c-4.6-8.4-2.1-18.8 6.2-23.4 8.4-4.6 18.9-2.1 23.5 6.2 4.6 8.4 2 18.9-6.3 23.5-8 4.6-18.4 1.6-23.4-6.3z"/>
	<path id="path1061" class="s8" d="m838.9 464.6c-4.6 2.5-10.5 0.8-13.4-3.8-2.5-5-0.9-10.8 3.7-13.8 5.1-2.5 10.9-0.8 13.8 3.8 3 4.6 1.3 10.9-4.1 13.8z"/>
	<path id="path1063" class="s9" d="m496.7 236.7c-13.4-13.4-13.4-35.1 0-48.5 13.4-13.4 35.1-13.4 48.5 0 13.4 13.4 13.4 35.1 0 48.5-13 13.4-34.7 13.4-48.5 0z"/>
	<path id="path1065" class="s9" d="m650.2 341.2c-7.5 8-20.1 8-28 0-8-7.5-8-20 0-28 7.5-7.9 20.1-7.9 28 0 7.5 7.5 7.5 20.1 0 28z"/>
	<path id="path1067" class="s9" d="m736.8 427.8c-6.3 6.3-15.9 6.3-22.2 0-6.3-6.3-6.3-15.9 0-22.2 6.3-6.2 15.9-6.2 22.2 0 5.9 6.3 5.9 15.9 0 22.2z"/>
	<path id="path1069" class="s9" d="m801.6 492.2c-3.3 2.9-8.3 2.9-11.7 0-3.3-2.9-3.7-8.4-0.4-11.7 2.9-3.4 8.4-3.8 11.7-0.4 3.4 3.3 3.4 8.8 0.4 12.1z"/>
	<path id="path1071" class="s10" d="m401.7 315.7c8.4-14.6 27.6-20 42.7-11.3 14.6 8.4 20.1 27.6 11.3 42.7-8.4 14.6-27.6 20.1-42.7 11.3-15-8.8-20.1-28-11.3-42.7z"/>
	<path id="path1073" class="s10" d="m585 421.9c-5.1 8.4-15.1 10.9-23.5 6.3-7.9-5-10.9-15-6.2-23.4 5-7.9 15-10.9 23.4-6.3 7.9 4.6 10.9 15.1 6.3 23.4z"/>
	<path id="path1075" class="s10" d="m692.5 483.8c-3.8 6.7-12.6 8.8-19.3 5.1-7.1-3.8-9.2-12.6-5.4-19.3 3.7-7.1 12.5-9.2 19.2-5.4 6.7 4.2 9.2 12.9 5.5 19.6z"/>
	<ellipse id="path1077" class="s11" cx="1508.6" cy="620.2" rx="68.6" ry="68.6"/>
	<ellipse id="path1079" class="s11" cx="1346.3" cy="620.2" rx="48.9" ry="48.9"/>
	<circle id="path1081" class="s11" cx="1219.5" cy="620.2" r="33.5"/>
	<circle id="path1083" class="s12" cx="1121.2" cy="620.2" r="21.8"/>
	<path id="path1085" class="s13" d="m1549.1 785.3v0.5c-9.2 33.4-43.5 53.5-76.9 44.3-33.5-9.2-53.6-43.5-44.4-77 9.2-33.4 43.5-53.5 77-44.3 33 9.2 53.1 43.5 44.3 76.5z"/>
	<path id="path1087" class="s13" d="m1290.6 716.3c6.3-22.5 29.7-36.3 52.3-30.1 22.6 6.3 36.4 29.7 30.1 52.3-6.2 22.6-29.7 36.4-52.3 30.1-23-6.3-36.3-29.7-30.1-52.3z"/>
	<path id="path1089" class="s13" d="m1178.9 686.7c4.6-16.8 21.8-26.8 38.5-22.2 16.8 4.6 26.8 21.7 22.2 38.5-4.6 16.7-21.8 26.7-38.5 22.1-16.7-4.6-26.3-21.7-22.2-38.4z"/>
	<path id="path1091" class="s13" d="m1095.3 664.5c2.9-10.9 13.8-17.2 24.2-14.2 10.9 2.9 17.2 13.8 14.3 24.2-3 10.9-13.8 17.2-24.3 14.2-10.9-2.9-17.1-14.2-14.2-24.2z"/>
	<path id="path1093" class="s14" d="m1480.1 937.1c-15.9 27.2-50.6 36.8-77.8 21-27.2-15.9-36.8-50.6-20.9-77.8 15.9-27.2 50.6-36.8 77.8-20.9 27.2 15.9 36.4 50.6 20.9 77.7z"/>
	<path id="path1095" class="s14" d="m1270.5 862.3c-19.2-10.9-25.5-35.1-14.6-54.4 10.9-19.2 35.1-25.5 54.4-14.6 19.2 10.9 25.5 35.1 14.6 54.4-11.3 18.8-35.5 25.5-54.4 14.6z"/>
	<path id="path1097" class="s14" d="m1166 789.1c-13.8-7.9-18.4-25.1-10.5-38.9 8-13.8 25.1-18.4 38.9-10.4 13.8 7.9 18.4 25.1 10.5 38.9-8 13.3-25.1 17.9-38.9 10.4z"/>
	<path id="path1099" class="s14" d="m1086.5 731h-0.4c-8.8-5.5-12.2-16.7-6.7-25.5 5.4-8.8 16.7-11.7 25.5-6.7 8.8 5.4 11.7 16.7 6.7 25.5-5 8.8-16.3 11.7-25.1 6.7z"/>
	<path id="path1101" class="s15" d="m1374.7 991.9c20.1 20.1 20.1 52.3 0 72.4-20.1 20-52.3 20-72.4 0-20-20.1-20-52.3 0-72.4 20.1-19.6 52.7-19.6 72.4 0z"/>
	<path id="path1103" class="s15" d="m1197.8 939.7c-14.7-14.3-14.7-37.7 0-52.3 14.2-14.7 37.6-14.7 52.3 0 14.6 14.2 14.6 37.6 0 52.3-14.7 14.6-38.1 14.6-52.3 0z"/>
	<path id="path1105" class="s15" d="m1116.2 841.8c-10-9.6-10-25.9 0-36 10-10 26.3-10 36.4 0 10 10.1 10 26.4 0 36.4-10.1 10.1-26.4 10.1-36.4-0.4z"/>
	<path id="path1107" class="s15" d="m1053 742.3c6.7-6.7 17.6-6.7 24.3 0 6.7 6.7 6.7 17.5 0 24.2-6.7 6.7-17.6 6.7-24.3 0-6.7-6.7-6.7-17.5 0-24.2z"/>
	<path id="path1109" class="s16" d="m1260.9 1095.6c13.4 23 5.5 52.7-17.5 66.1-23 13.4-52.7 5.4-66.1-17.6-13.4-23-5.5-52.6 17.5-66 23-13.4 52.7-5.5 66.1 17.5z"/>
	<path id="path1111" class="s16" d="m1154.7 1009.5c-16.8 9.6-37.3 3.8-46.9-12.6-9.6-16.7-3.7-37.2 12.6-46.8 16.7-9.6 37.2-3.8 46.8 12.6 9.6 16.3 3.8 37.2-12.5 46.8z"/>
	<path id="path1113" class="s16" d="m1054.7 881.1c-6.3-10.9-2.5-24.7 8.4-30.9 10.8-6.3 24.6-2.5 30.9 8.3 6.3 10.9 2.5 24.7-8.3 31-10.9 6.2-24.7 2.5-31-8.4z"/>
	<path id="path1115" class="s16" d="m1038.8 777c4.2 7.5 1.7 17.1-5.8 21.3-7.6 4.2-17.2 1.7-21.4-5.8-4.2-7.6-1.7-17.2 5.9-21.4 7.5-4.2 17.1-1.6 21.3 5.9z"/>
	<path id="path1117" class="s17" d="m1123.3 1165.9c6.7 24.2-7.9 48.9-32.2 55.6-24.3 6.7-48.9-7.9-55.6-32.2-6.7-24.2 7.9-48.9 32.2-55.6 24.2-6.7 49.3 7.9 55.6 32.2z"/>
	<path id="path1119" class="s17" d="m1007 1028.7c-4.2-16.7 5.5-33.8 22.2-38.4 16.7-4.6 33.9 5.4 38.5 22.1 4.6 16.7-5.5 33.9-22.2 38.5-16.7 4.6-33.9-5-38.5-22.2z"/>
	<path id="path1121" class="s17" d="m1009.9 918.7c-11.2 3-23-3.7-25.9-15-2.9-11.3 3.8-23 15.1-25.9 11.3-3 23 3.7 25.9 15 3.4 11.7-3.3 23.4-15.1 25.9z"/>
	<path id="path1123" class="s17" d="m982.8 817.5c-8 2.1-15.5-2.5-17.6-10-2.1-7.5 2.5-15.5 10-17.6 7.6-2 15.5 2.6 17.6 10.1 2.1 7.5-2.5 15.5-10 17.5z"/>
	<ellipse id="path1125" class="s18" cx="929.6" cy="1197.3" rx="42.7" ry="42.7"/>
	<circle id="path1127" class="s18" cx="929.6" cy="1035" r="28.4"/>
	<circle id="path1129" class="s18" cx="929.6" cy="907.9" r="20.1"/>
	<circle id="path1131" class="s18" cx="929.6" cy="810" r="13"/>
	<path id="path1133" class="s19" d="m818.4 1187.6c-5.9 20.9-27.6 33.9-49 28.1-20.9-5.9-33.9-27.6-28-49 5.9-20.9 27.6-33.8 48.9-28 21.4 5.9 33.9 27.6 28.1 48.9z"/>
	<path id="path1135" class="s19" d="m846.8 1027.1c-3.8 13.3-17.6 21.7-31.4 17.9-13.4-3.7-21.7-17.5-18-31.3 3.8-13.4 17.6-21.8 31.4-18 13.8 3.8 21.8 18 18 31.4z"/>
	<path id="path1137" class="s19" d="m872.7 902.9c-2.5 9.6-12.5 15.4-22.5 12.9-9.7-2.5-15.5-12.5-13-22.6 2.5-9.6 12.5-15.4 22.6-12.9 10 2.9 15.9 12.9 12.9 22.6z"/>
	<path id="path1139" class="s19" d="m877.8 814.2c-5.9-1.3-9.2-7.9-8-13.8 1.3-5.9 8-9.2 13.8-7.9 5.9 1.2 9.6 7.5 8 13.8-1.7 6.2-8 9.6-13.8 7.9z"/>
	<path id="path1141" class="s20" d="m672.8 1137.9c-10.5 17.5-33.1 23.4-50.6 13.4-17.6-10.5-23.4-33.1-13.4-50.6 10.5-17.6 33-23.5 50.6-13.4 17.6 10.4 23.9 33 13.4 50.6z"/>
	<path id="path1143" class="s20" d="m741.8 990.3c-6.3 10.8-20.1 14.6-30.9 8.3-10.9-6.3-14.7-20.1-8.4-30.9 6.3-10.9 20.1-14.7 30.9-8.4 10.9 6.3 14.7 20.1 8.4 31z"/>
	<path id="path1145" class="s20" d="m770.7 860.6c4.6-8.3 15-10.9 23.4-6.3 8.4 4.6 10.9 15.1 6.3 23.5-4.6 8.3-15.1 10.8-23.4 6.2-8.4-4.6-10.9-15-6.3-23.4z"/>
	<path id="path1147" class="s20" d="m843.5 788.7c-2.5 5-8.8 6.7-13.4 3.8-5-2.6-6.7-8.8-3.8-13.4 2.5-5 8.8-6.7 13.4-3.8 4.6 2.9 6.3 9.2 3.8 13.4z"/>
	<path id="path1149" class="s21" d="m545.6 1003.2c13.4 13.4 13.4 35.1 0 48.5-13.4 13.4-35.1 13.4-48.5 0-13.4-13.4-13.4-35.1 0-48.5 13.4-13.4 35.1-13.4 48.5 0z"/>
	<path id="path1151" class="s21" d="m650.2 898.7c8 7.5 7.5 20 0 28-7.5 7.9-20.1 7.9-28 0-8-7.5-8-20.1 0-28 7.5-8 20.5-8 28 0z"/>
	<path id="path1153" class="s21" d="m736.8 812.1c6.3 6.3 6.3 15.9 0 22.2-6.3 6.2-15.9 6.2-22.2 0-6.3-6.3-6.3-15.9 0-22.2 5.9-6.3 15.9-6.3 22.2 0z"/>
	<path id="path1155" class="s21" d="m801.6 759.8c-3.3 3-8.3 3-11.7 0-3.3-2.9-3.7-8.3-0.4-11.7 2.9-3.3 8.4-3.7 11.7-0.4 3.4 3.4 3.4 8.8 0.4 12.1z"/>
	<path id="path1157" class="s22" d="m456.5 892c8.8 15 3.8 33.9-11.3 42.6-15 8.8-33.8 3.8-42.6-11.3-8.8-15-3.8-33.8 11.3-42.6 15-8.8 34.3-3.8 42.6 11.3z"/>
	<path id="path1159" class="s22" d="m585 818c4.6 8.3 1.6 18.8-6.3 23.4-8.4 4.6-18.8 1.7-23.4-6.3-4.7-8.4-1.7-18.8 6.2-23.4 8.4-4.6 18.8-1.7 23.5 6.3z"/>
	<path id="path1161" class="s22" d="m692 756.1c4.2 6.7 1.7 15.4-5 19.2-6.7 4.2-15.5 1.7-19.2-5-4.2-6.7-1.7-15.5 5-19.2 6.7-4.2 15.5-1.7 19.2 5z"/>
	<path id="path1163" fill-rule="evenodd" class="s23" d="m350.3 520.6h50.2v193.2h-50.2zm51-50.6c-4.2 15.5-20.1 24.7-35.5 20.5-15.5-4.2-24.7-20-20.5-35.5 4.1-15.5 20-24.7 35.5-20.5 15.5 3.8 24.7 20.1 20.5 35.5zm154.4 248c-12.2 0-24.3-2.1-35.6-7.1-10-4.6-18.8-11.7-25.5-20.5v120h-48.9v-289.8h48.5v26.8c6.3-9.6 15-17.1 25.5-22.6 10.9-5.4 23-8.3 35.6-8.3 12.1 0 23.8 2.5 35.1 7.1 11.3 4.6 21.3 11.7 29.7 20 8.8 9.2 15.9 20.1 20.5 31.8q8.1 20.1 7.5 41.4c0.4 14.2-2.5 28.5-7.9 41.8-5.1 11.7-12.2 22.6-20.9 31.8-16.4 17.6-39.8 27.6-63.6 27.6zm-10.1-46.8c7.1 0 14.3-1.3 20.9-4.2 6.3-2.9 12.2-6.7 17.2-11.7 5-5 8.8-10.9 11.3-17.2 5.4-13.8 5.4-28.8 0-42.6-2.5-6.3-6.7-12.1-11.3-17.2-5-5-10.9-8.7-17.2-11.7-6.6-2.9-13.8-4.1-20.9-4.1-14.2 0-28 5.8-38.5 15.8-5 5.1-8.7 10.9-11.2 17.2-5.5 13.8-5.5 28.8 0 42.2 2.5 6.3 6.2 12.2 11.2 17.2 10.5 10.8 24.3 16.7 38.5 16.3zm138.5-150.6h48.5v29.7c4.2-10.4 11.3-19.2 20.9-25.1 10.1-5.4 20.9-8.3 32.7-7.9 6.2 0 12.1 0.8 17.9 2.1 5.1 1.2 10.1 2.9 14.7 5.4l-18 48.5c-3.4-2.1-7.1-3.7-10.9-5-5-1.2-10-2.1-15-2.1-11.3-0.4-22.2 3.4-30.6 10.5-7.5 7.1-11.3 18.8-11.3 34.7v102h-48.9zm243.9 197.4c-13.8 0-27.6-2.5-40.6-7.9-12.1-5.1-23-12.6-32.6-21.8-18.9-18.8-29.3-44.3-29.3-71.1 0-13.4 2.5-26.7 7.5-39.3 5-12.1 12.1-23 21.3-32.2 40.6-39.3 105-39.3 145.6 0 18.8 18.8 29.7 44.3 29.7 71.1 0 13.4-2.5 26.8-7.9 38.9-5.1 12.1-12.6 23-21.4 32.2-9.2 9.2-20.1 16.7-32.6 21.7-12.1 5.5-25.9 8.4-39.7 8.4zm0.4-46.8c7.1 0 14.2-1.3 20.9-4.2 6.3-2.9 11.7-6.7 16.7-11.3 5-5 8.8-10.9 11.3-17.2 5.5-13.8 5.5-28.8 0-42.2-2.5-6.3-6.3-12.1-11.3-17.1-5-5.1-10.4-8.8-16.7-11.3-13.4-5.9-28.5-5.9-41.4 0-6.3 2.9-11.7 6.7-16.8 11.3-5 5-8.7 10.8-11.2 17.1-5.5 13.8-5.5 28.9 0 42.2 2.5 6.3 6.2 12.2 11.2 17.2 5.1 5 10.5 8.8 16.8 11.3 6.3 2.5 13.4 4.2 20.5 4.2zm-927.4-150.6h50.2l38.9 123.4 46-123.4h43.5l45.2 123.4 40.6-123.4h50.2l-65.7 193.2h-46.4l-46.1-125.9-46.4 125.9h-47.3z"/>
</svg>